<svg xmlns="http://www.w3.org/2000/svg" width="512" height="512" viewBox="0 0 512 512"><rect width="100%" height="100%" fill="#DDDDDD"/><path fill="#999999" d="M129.055 278.435h40.46v15.54h-59.29v-101.22h18.83v85.68Zm82.95-57.4q7.98 0 14.53 2.59 6.54 2.59 11.2 7.35 4.65 4.76 7.17 11.62 2.52 6.86 2.52 15.33 0 8.54-2.52 15.4-2.52 6.86-7.17 11.69-4.66 4.83-11.2 7.42-6.55 2.59-14.53 2.59-8.05 0-14.63-2.59t-11.23-7.42q-4.66-4.83-7.21-11.69-2.56-6.86-2.56-15.4 0-8.47 2.56-15.33 2.55-6.86 7.21-11.62 4.65-4.76 11.23-7.35t14.63-2.59Zm0 60.69q8.96 0 13.27-6.02 4.3-6.02 4.3-17.64 0-11.62-4.3-17.71-4.31-6.09-13.27-6.09-9.1 0-13.47 6.12-4.38 6.13-4.38 17.68t4.38 17.6q4.37 6.06 13.47 6.06Zm74.9-25.41q3.22 0 5.6-.88 2.38-.87 3.96-2.41 1.57-1.54 2.38-3.71.8-2.17.8-4.76 0-5.32-3.18-8.44-3.19-3.11-9.56-3.11-6.37 0-9.55 3.11-3.19 3.12-3.19 8.44 0 2.52.81 4.69.8 2.17 2.38 3.74 1.57 1.58 3.99 2.45 2.41.88 5.56.88Zm19.53 40.88q0-2.1-1.26-3.43t-3.43-2.07q-2.17-.73-5.07-1.08-2.91-.35-6.16-.53-3.26-.17-6.72-.31-3.47-.14-6.76-.56-2.87 1.61-4.65 3.78-1.79 2.17-1.79 5.04 0 1.89.95 3.54.94 1.64 3.01 2.83 2.06 1.19 5.35 1.86 3.29.66 8.05.66 4.83 0 8.33-.73 3.5-.74 5.78-2.03 2.27-1.3 3.32-3.08 1.05-1.79 1.05-3.89Zm-3.43-72.59h20.65v6.44q0 3.08-3.71 3.78l-6.44 1.19q1.47 3.71 1.47 8.12 0 5.32-2.13 9.62-2.14 4.31-5.92 7.32-3.78 3.01-8.92 4.65-5.15 1.65-11.1 1.65-2.1 0-4.06-.21-1.96-.21-3.85-.56-3.36 2.03-3.36 4.55 0 2.17 2 3.18 1.99 1.02 5.28 1.44 3.29.42 7.49.52 4.2.11 8.61.46 4.41.35 8.61 1.22 4.2.88 7.49 2.77 3.29 1.89 5.29 5.14 1.99 3.26 1.99 8.37 0 4.76-2.34 9.24-2.35 4.48-6.79 7.98-4.45 3.5-10.92 5.64-6.48 2.13-14.74 2.13-8.12 0-14.14-1.57-6.02-1.58-10.01-4.2-3.99-2.63-5.95-6.06-1.96-3.43-1.96-7.14 0-5.04 3.05-8.44 3.04-3.39 8.36-5.42-2.87-1.47-4.55-3.92-1.68-2.45-1.68-6.44 0-1.61.6-3.33.59-1.71 1.75-3.39 1.15-1.68 2.9-3.19 1.75-1.5 4.13-2.69-5.46-2.94-8.57-7.84-3.12-4.9-3.12-11.48 0-5.32 2.14-9.63 2.13-4.3 5.95-7.35 3.81-3.04 9.03-4.65 5.21-1.61 11.37-1.61 4.62 0 8.68.94 4.06.95 7.42 2.77Zm63.35-3.57q7.99 0 14.53 2.59 6.55 2.59 11.2 7.35 4.65 4.76 7.18 11.62 2.51 6.86 2.51 15.33 0 8.54-2.51 15.4-2.53 6.86-7.18 11.69-4.65 4.83-11.2 7.42-6.54 2.59-14.53 2.59-8.05 0-14.63-2.59t-11.23-7.42q-4.66-4.83-7.21-11.69-2.56-6.86-2.56-15.4 0-8.47 2.56-15.33 2.55-6.86 7.21-11.62 4.65-4.76 11.23-7.35t14.63-2.59Zm0 60.69q8.96 0 13.27-6.02 4.31-6.02 4.31-17.64 0-11.62-4.31-17.71-4.31-6.09-13.27-6.09-9.1 0-13.47 6.12-4.38 6.13-4.38 17.68t4.38 17.6q4.37 6.06 13.47 6.06Z"/></svg>